/* XPM */
static char *result[] = {
/* columns rows colors chars-per-pixel */
"50 50 16 1 ",
"  c #00008B", // azul oscuro (fondo)
". c #0000FF", // azul (Pac-Man)
"X c #0000CD", // azul medio (fantasmas)
"o c #1E90FF", // azul claro (fantasmas)
"O c #4169E1", // azul real (fantasmas)
"+ c #4682B4", // azul acero (fantasmas)
"@ c #5F9EA0", // azul cadete (paredes)
"# c #6495ED", // azul maíz (barreras)
"$ c #00BFFF", // azul profundo (energizador)
"% c #87CEEB", // azul cielo (puntos de bonificación)
"& c #B0C4DE", // azul claro (gris claro)
"* c #708090", // azul pizarra (zonas)
"= c #778899", // azul pizarra claro (zonas)
"- c #ADD8E6", // azul claro (zonas)
"; c #B0E0E6", // azul pálido (cercanía)
": c #AFEEEE", // azul pálido (zonas)
/* pixels */
"77777777777777777777777777777777777777777777777777",
"77e   ++..4. +ty%0:o  +  4  + 28  +  4. ++   77777",
"77e   ++.... +tt XX.  +  .  +  .  +  .. ++   #r777",
"dwOOO+ff .. ++  ...   +  .  +ii +++ii  +ii ++    7",
"d.. t+++f  +++ff   ++++tt ++++++++++++++ff ++t   7",
"d  +++++f  +++ff   ++++tt ++++++++++++++ff ++t+  7",
"7  +++++++++++++++++++++++++++++++++++++++++++f++7",
"7    +++++++++++++++++++++++++++++++++++++++++f++7",
"7++if+++++++++++++++++++++++++++++++++++++++++ ..7",
"7++if+++++++++++++++++++++++++++++++++++++++++...7",
"7  +++++++++++++++++++++++++++++++++++++++++++..47",
"7.. ++++++++++++++++++++++++++++++++++++++++++ ..7",
"7-. +++++++++++++++++++++++++++++++++++++++++++  7",
"7  i+++++++++++++++++++++++++++++++++++++++++++++d",
"7  i++++++++++++++++++++++++++++++++++++++++++ ttd",
"d+++++++++++++++++++++++++++++++++++++++++++++ tt7",
"d  +++++++++++++++++++++++++++++++++++++++++++.  7",
"d& +++++++++++++++++++++++++++++++++++++++++++.XX7",
"d7. ++++++++++++++++++++++++++++++++++++++++++.XX7",
"7& i++++++++++++++++++++++++++++++++++++++++++ .87",
"7  i++++++++++++++++++++++++++++++++++++++++++   7",
"7+++++++++++++++++++++++++++++++++++++++++++++   7",
"7   +++++++++++++++++++++++++++++++++++++++++++++7",
"7   ++++++++++++++++++++++++++++++++++++++++++   7",
"7<.. +++++++++++++++++++++++++++++++++++++++++   7",
"d,  t+++++++++++++++++++++++++++++++++++++++++..;7",
"d   t+++++++++++++++++++++++++++++++++++++++++  *7",
"d+++++++++++++++++++++++++++++++++++++++++++++   7",
"7   +++++++++++++++++++++++++++++++++++++++++++++7",
"75$ ++++++++++++++++++++++++++++++++++++++++++i  7",
"777 ++++++++++++++++++++++++++++++++++++++++++i  7",
"7su. +++++++++++++++++++++++++++++++++++++++++ .37",
"7XX. ++++++++++++++++++++++++++++++++++++++++++  7",
"7  . ++++++++++++++++++++++++++++++++++++++++++  7",
"7tt f++++++++++++++++++++++++++++++++++++++++++++d",
"7tt f+++++++++++++++++++++++++++++++++++++++++i  d",
"7+++++++++++++++++++++++++++++++++++++++++++++i  d",
"7  +++++++++++++++++++++++++++++++++++++++++++ .ad",
"dp. ++++++++++++++++++++++++++++++++++++++++++ ..d",
"dd.. ++++++++++++++++++++++++++++++++++++++++++  d",
"7=.. +++++++++++++++++++++++++++++++++++++++++i++7",
"7.. f+++++++++++++++++++++++++++++++++++++++++i++7",
"7++f++++++++++++++++++++++++++++++++++++++++++   7",
"7++f+++++++++++++++++++++++++++++++++++++++++++  7",
"7  ++++++++++++++++++++++++++++++++++++++++++++  7",
"7  +++++f  +++ff   ++++tt ++++++++++++++ff +tt ..7",
"7    +ff .. ++  ...   +  .  +ii +++ii  +ii OOOOOO7",
"771   ++.... +tt X94  +  .  +  .  +  .. ++   .O@>7",
"777   ++..88 +tt X77  + &7& + $65$+  88 ++   .Oq77",
"77777777777777777777777777777777777777777777777777"
};
