/* XPM */
static char *_db29f716c4b44d4d1e48415a7946a68aQY20ECbgSBhyadT[] = {
/* columns rows colors chars-per-pixel */
"32 32 4 1 ",
"  c None",
". c #004000",
"X c red",
"o c white",
/* pixels */
"                                ",
"                      ..        ",
"                      ..        ",
"                     ...        ",
"                    ....        ",
"                   .. ..        ",
"                  ..  ..        ",
"                 ..  X..X       ",
"                .. XXX..XXX     ",
"               ...XXXX..XXXX    ",
"              ...XXXXX..XXXXXX  ",
"          XXX...XXXXXXXXXXXXXX  ",
"        XXXXX..XXXXXXXXXXXXXXXX ",
"       XXXXXXXXXXXXooXXXXXXXXXX ",
"      XXXoXXXXXXXXXoXXXXXXXXXXX ",
"      XXoXXXXXXXXXXoXXXXXXXXXXXX",
"     XXXoXXXXXXXXXXXXXXXXXXXXXXX",
"     XXXXXXXXXXXXXXXXXXXXXXXXXXX",
"    XXXXXXXXXXXXXXXXXXXXXXXXXXXX",
"    XXXXXXXXXXXXXXXXXXXXXXXXXXXX",
"    XXXXXXXXXXXXXXXXXXXXXXXXXXX ",
"    XXXXXXXXXXXXXXXXXXXXXXXXXXX ",
"    XXXXXXXXXXXXXXXXXXXXXXXXXXX ",
"    XXXXXXXXXXXXXXXXXXXXXXXXXX  ",
"     XXXXXXXXXXXXXXXXXXXXXXXXX  ",
"     XXXXXXXXXXXXXXXXXXXXXXX    ",
"      XXXXXXXXXXXXXXXXXXXXX     ",
"      XXXXXXXXXXXXX  XXXX       ",
"       XXXXXXXXXXX              ",
"        XXXXXXXXX               ",
"          XXXXX                 ",
"                                "
};
