/* XPM */
static char *_9984595848a402cecf8133ed7f8dc05mkO3lbjxZmkO9sPr[] = {
/* columns rows colors chars-per-pixel */
"32 32 3 1 ",
"  c None",
". c black",
"X c yellow",
/* pixels */
"                                ",
"                                ",
"                                ",
"                                ",
"                                ",
"    ..                          ",
"    .X.                         ",
"   .XXX.                        ",
"  .XXXXX.                       ",
"  .XXXXXX..                     ",
" .XXXXXXXXX.                    ",
" .XXXXXXXXXX.                   ",
" .XXXXXXXXXXX.                  ",
".XXXXXXXXXXXXX..                ",
".XXXXXXXXXXXXX..                ",
".XXXXXXXXXXXX.                  ",
".XXXXXXXXXXX.                   ",
".XXXXXXXXXX.                    ",
".XXXXXXXXX.                     ",
" .XXXXXXX.                      ",
" .XXXXXXX.                      ",
" .XXXXXX.                       ",
"  .XXXX.                        ",
"  .XXX.                         ",
"   .X.                          ",
"    .                           ",
"                                ",
"                                ",
"                                ",
"                                ",
"                                ",
"                                "
};
